<svg width="1032" height="276" viewBox="0 0 1032 276" fill="none" xmlns="http://www.w3.org/2000/svg">
<g clip-path="url(#clip0_1_2)">
<path d="M0.479996 274.95V230.03H19.41C24.2 230.03 28.43 230.97 32.09 232.86C35.75 234.74 38.59 237.37 40.62 240.75C42.65 244.13 43.67 248.04 43.67 252.49C43.67 256.94 42.65 260.86 40.62 264.23C38.59 267.61 35.74 270.24 32.09 272.12C28.43 274.01 24.21 274.95 19.41 274.95H0.479996ZM6.89999 269.36H19.03C22.75 269.36 25.97 268.65 28.69 267.24C31.41 265.83 33.51 263.85 35.01 261.3C36.51 258.76 37.26 255.81 37.26 252.48C37.26 249.15 36.51 246.15 35.01 243.62C33.51 241.1 31.41 239.13 28.69 237.72C25.97 236.31 22.75 235.6 19.03 235.6H6.89999V269.36Z" fill="#DD5E28"/>
<path d="M104.19 269.36H130.37V274.94H97.77V230.02H129.47V235.6H104.19V269.36ZM103.61 249.4H126.71V254.86H103.61V249.4Z" fill="#DD5E28"/>
<path d="M197.37 274.95L177.6 230.03H184.53L202.69 271.49H198.71L217 230.03H223.42L203.72 274.95H197.36H197.37Z" fill="#DD5E28"/>
<path d="M279.84 269.36H306.02V274.94H273.42V230.02H305.12V235.6H279.84V269.36ZM279.26 249.4H302.36V254.86H279.26V249.4Z" fill="#DD5E28"/>
<path d="M360.7 274.95V230.03H367.12V269.37H391.44V274.95H360.7Z" fill="#DD5E28"/>
<path d="M462.54 275.46C459.12 275.46 455.94 274.88 453.01 273.73C450.08 272.57 447.54 270.96 445.4 268.88C443.26 266.81 441.59 264.38 440.39 261.6C439.19 258.82 438.59 255.78 438.59 252.49C438.59 249.2 439.19 246.16 440.39 243.38C441.59 240.6 443.26 238.17 445.4 236.1C447.54 234.03 450.06 232.41 452.97 231.25C455.88 230.1 459.07 229.52 462.53 229.52C465.99 229.52 469.11 230.09 472 231.22C474.89 232.35 477.41 233.96 479.57 236.03C481.73 238.11 483.4 240.53 484.58 243.31C485.76 246.09 486.34 249.15 486.34 252.49C486.34 255.83 485.75 258.89 484.58 261.67C483.4 264.45 481.73 266.88 479.57 268.95C477.41 271.03 474.88 272.63 472 273.76C469.11 274.89 465.96 275.46 462.53 275.46H462.54ZM462.54 269.75C465.02 269.75 467.32 269.32 469.44 268.47C471.56 267.61 473.4 266.4 474.96 264.84C476.52 263.28 477.74 261.45 478.62 259.35C479.5 257.26 479.94 254.97 479.94 252.49C479.94 250.01 479.5 247.72 478.62 245.63C477.74 243.54 476.52 241.71 474.96 240.14C473.4 238.58 471.56 237.37 469.44 236.51C467.32 235.66 465.02 235.23 462.54 235.23C460.06 235.23 457.69 235.66 455.58 236.51C453.46 237.37 451.61 238.58 450.03 240.14C448.45 241.7 447.22 243.53 446.34 245.63C445.46 247.73 445.02 250.01 445.02 252.49C445.02 254.97 445.46 257.26 446.34 259.35C447.22 261.45 448.45 263.28 450.03 264.84C451.61 266.4 453.46 267.61 455.58 268.47C457.7 269.32 460.02 269.75 462.54 269.75Z" fill="#DD5E28"/>
<path d="M540.45 274.95V230.03H557.97C561.9 230.03 565.26 230.65 568.04 231.89C570.82 233.13 572.96 234.93 574.46 237.28C575.96 239.63 576.71 242.43 576.71 245.69C576.71 248.95 575.96 251.73 574.46 254.06C572.96 256.39 570.82 258.19 568.04 259.45C565.26 260.71 561.9 261.34 557.97 261.34H543.98L546.87 258.32V274.94H540.45V274.95ZM546.87 258.97L543.98 255.76H557.78C561.89 255.76 565 254.88 567.12 253.13C569.24 251.37 570.3 248.89 570.3 245.69C570.3 242.49 569.24 240 567.12 238.24C565 236.49 561.89 235.61 557.78 235.61H543.98L546.87 232.4V258.97Z" fill="#DD5E28"/>
<path d="M630.42 274.95V230.03H635.68L655.83 263.98H653.01L672.9 230.03H678.16L678.22 274.95H672.06L672 239.72H673.48L655.77 269.5H652.82L634.98 239.72H636.58V274.95H630.42Z" fill="#DD5E28"/>
<path d="M742.41 269.36H768.59V274.94H735.99V230.02H767.69V235.6H742.41V269.36ZM741.83 249.4H764.93V254.86H741.83V249.4Z" fill="#DD5E28"/>
<path d="M823.27 274.95V230.03H828.53L858.24 266.93H855.48V230.03H861.9V274.95H856.64L826.93 238.05H829.69V274.95H823.27Z" fill="#DD5E28"/>
<path d="M928.58 274.95V235.61H913.18V230.03H950.34V235.61H934.94V274.95H928.59H928.58Z" fill="#DD5E28"/>
<path d="M1014.13 275.46C1010.71 275.46 1007.43 274.94 1004.31 273.89C1001.19 272.84 998.73 271.48 996.93 269.82L999.3 264.81C1001.01 266.31 1003.19 267.55 1005.85 268.53C1008.5 269.51 1011.26 270 1014.13 270C1016.74 270 1018.86 269.7 1020.48 269.1C1022.11 268.5 1023.3 267.68 1024.07 266.63C1024.84 265.59 1025.22 264.4 1025.22 263.07C1025.22 261.53 1024.72 260.29 1023.71 259.35C1022.7 258.41 1021.4 257.65 1019.8 257.07C1018.19 256.49 1016.43 255.99 1014.51 255.56C1012.59 255.13 1010.65 254.63 1008.7 254.05C1006.75 253.47 1004.98 252.73 1003.37 251.84C1001.76 250.94 1000.47 249.73 999.49 248.21C998.51 246.69 998.01 244.74 998.01 242.34C998.01 239.94 998.62 237.9 999.84 235.95C1001.06 234 1002.94 232.45 1005.49 231.27C1008.04 230.09 1011.28 229.5 1015.21 229.5C1017.82 229.5 1020.41 229.84 1022.98 230.53C1025.55 231.21 1027.77 232.2 1029.65 233.48L1027.53 238.62C1025.61 237.33 1023.57 236.4 1021.43 235.82C1019.29 235.25 1017.21 234.96 1015.2 234.96C1012.67 234.96 1010.6 235.28 1008.97 235.92C1007.34 236.56 1006.16 237.42 1005.41 238.49C1004.66 239.56 1004.29 240.76 1004.29 242.08C1004.29 243.66 1004.79 244.93 1005.8 245.86C1006.8 246.8 1008.11 247.55 1009.71 248.11C1011.31 248.67 1013.08 249.17 1015 249.62C1016.92 250.07 1018.86 250.57 1020.81 251.13C1022.76 251.69 1024.53 252.41 1026.14 253.31C1027.75 254.21 1029.04 255.41 1030.02 256.9C1031 258.4 1031.5 260.32 1031.5 262.68C1031.5 265.04 1030.88 267.05 1029.64 269C1028.4 270.95 1026.48 272.51 1023.9 273.68C1021.31 274.86 1018.05 275.45 1014.11 275.45L1014.13 275.46Z" fill="#DD5E28"/>
<path d="M353.1 192.85V189.98C362.68 189.98 369.52 186.96 373.64 180.93C377.76 174.89 379.82 167.66 379.82 159.24V32.53C379.82 24.11 377.76 17.26 373.64 11.99C369.52 6.71999 362.67 4.09003 353.1 4.09003V1.21997H426.65V4.09003C417.07 4.09003 410.17 6.72999 405.96 11.99C401.74 17.26 399.64 24.11 399.64 32.53V189.99H478.94C487.56 189.99 494.46 187.93 499.63 183.81C504.8 179.7 507.39 172.85 507.39 163.27H510.26V192.87H353.1V192.85Z" fill="#DD5E28"/>
<path d="M615.71 166.71L683.52 1.21997H713.11V4.09003C707.75 4.09003 702.91 5.00001 698.6 6.82001C694.29 8.64001 690.46 11.03 687.11 14C683.76 16.98 680.79 20.47 678.2 24.49C675.61 28.51 673.46 32.73 671.73 37.13L608.23 192.86H605.36L538.13 32.53C534.3 23.72 529.94 16.78 525.06 11.7C520.17 6.63001 513.32 4.09003 504.52 4.09003V1.21997H546.47L615.71 166.71Z" fill="#DD5E28"/>
<path d="M730.35 192.85V189.98C739.93 189.98 746.77 186.96 750.89 180.93C755.01 174.89 757.07 167.66 757.07 159.24V32.53C757.07 24.11 755.01 17.26 750.89 11.99C746.77 6.71999 739.92 4.09003 730.35 4.09003V1.21997H803.9V4.09003C794.32 4.09003 787.42 6.72999 783.21 11.99C778.99 17.26 776.89 24.11 776.89 32.53V159.24C776.89 167.67 779.04 174.9 783.36 180.93C787.67 186.96 794.52 189.98 803.9 189.98V192.85H730.35Z" fill="#DD5E28"/>
<path d="M821.14 192.85V189.98C826.5 189.98 831.15 189.07 835.07 187.25C838.99 185.43 842.44 183.04 845.41 180.07C848.38 177.1 850.96 173.6 853.17 169.58C855.37 165.56 857.43 161.35 859.35 156.94L925.15 0.349976H930.61L998.13 161.53C1001.77 170.34 1005.79 177.29 1010.2 182.36C1014.6 187.44 1021.02 189.98 1029.45 189.98V192.85H989.51L962.79 129.07C951.87 129.07 940.95 129.55 930.03 130.51C919.11 131.47 908.81 133.53 899.14 136.69C889.47 139.85 880.8 144.4 873.14 150.34C865.48 156.28 859.44 164.23 855.04 174.18L847.28 192.86H821.13L821.14 192.85ZM961.64 126.2L918.54 23.05L862.51 156.66C872.09 145.55 884.78 137.7 900.58 133.1C916.38 128.5 936.73 126.21 961.63 126.21L961.64 126.2Z" fill="#DD5E28"/>
<path d="M55.69 4.72998C48.38 4.72998 21.83 6.35999 21.83 32.36C22.1 66.76 67.88 81.65 107.15 103.87C131.53 117.68 143.17 128.52 142.9 150.19C142.36 199.48 81.41 198.67 72.75 198.67C49.19 198.67 2.06 192.44 2.06 155.06C2.06 123.1 36.73 119.85 43.5 110.37C47.56 104.68 39.71 97.91 32.94 91.41C13.71 73.26 5.58 61.35 5.58 45.09C5.58 8.52003 45.67 1.21002 65.98 1.21002C93.88 1.21002 119.07 15.02 140.47 38.05L124.49 50.78C107.15 25.32 81.97 4.72998 55.69 4.72998ZM37 91.41C39.98 95.74 52.44 104.14 44.58 113.62C39.16 120.12 23.45 127.16 23.45 145.85C23.18 173.75 57.31 187.29 88.73 187.29C114.46 187.29 138.3 178.08 138.84 160.47C139.92 135.82 95.23 122.82 57.85 102.51C43.22 94.65 34.56 88.15 36.99 91.4L37 91.41Z" fill="#DD5E28"/>
<path d="M255.85 186.34C140.43 186.34 140.43 6.85999 255.85 6.85999C371.27 6.85999 371.04 186.34 255.85 186.34ZM258.61 11.7C185.58 7.78001 191.11 87.73 248.01 87.73C253.31 87.73 259.07 87.04 265.29 85.43L265.75 87.27C256.76 90.03 248.47 91.19 241.1 91.19C192.72 91.19 182.58 38.43 218.98 17.7C150.32 48.34 169.91 181.73 261.37 181.73C361.82 181.73 354.22 20.69 258.61 11.7Z" fill="#DD5E28"/>
</g>
<defs>
<clipPath id="clip0_1_2">
<rect width="1032" height="276" fill="white"/>
</clipPath>
</defs>
</svg>
